<svg xmlns="http://www.w3.org/2000/svg" width="2500" height="2500" fill="none" viewBox="0 0 2500 2500"><mask id="a" width="2500" height="2500" x="0" y="0" maskUnits="userSpaceOnUse" style="mask-type:luminance"><path fill="#fff" d="M2500 0H0v2500h2500V0Z"></path></mask><g mask="url(#a)"><g filter="url(#b)" opacity=".2"><path fill="url(#c)" d="M2516.67 935.833c325.85 0 590-264.152 590-590s-264.15-590-590-590-590 264.152-590 590 264.15 590 590 590Z"></path><path fill="#0068FF" d="M2516.67 935.833c325.85 0 590-264.152 590-590s-264.15-590-590-590-590 264.152-590 590 264.15 590 590 590Z" style="mix-blend-mode:screen"></path><path fill="url(#d)" d="M-8.541 1410.42c177.076 0 320.625-143.55 320.625-320.63 0-177.075-143.549-320.624-320.625-320.624s-320.625 143.549-320.625 320.624c0 177.08 143.549 320.63 320.625 320.63Z"></path><path fill="#0068FF" d="M-8.541 1410.42c177.076 0 320.625-143.55 320.625-320.63 0-177.075-143.549-320.624-320.625-320.624s-320.625 143.549-320.625 320.624c0 177.08 143.549 320.63 320.625 320.63Z" style="mix-blend-mode:screen"></path></g><g filter="url(#e)"><path fill="#fff" d="M1622.29 1869.17c186.05 0 336.88-150.83 336.88-336.88 0-186.05-150.83-336.87-336.88-336.87-186.05 0-336.87 150.82-336.87 336.87s150.82 336.88 336.87 336.88Z"></path><path fill="url(#f)" d="M1622.29 1869.17c186.05 0 336.88-150.83 336.88-336.88 0-186.05-150.83-336.87-336.88-336.87-186.05 0-336.87 150.82-336.87 336.87s150.82 336.88 336.87 336.88Z"></path><path fill="#00B4C3" d="M1622.29 1869.17c186.05 0 336.88-150.83 336.88-336.88 0-186.05-150.83-336.87-336.88-336.87-186.05 0-336.87 150.82-336.87 336.87s150.82 336.88 336.87 336.88Z" style="mix-blend-mode:overlay"></path><path fill="#fff" d="M957.71 1622.92c275.34 0 498.54-223.21 498.54-498.55 0-275.332-223.2-498.537-498.54-498.537-275.337 0-498.542 223.205-498.542 498.537 0 275.34 223.205 498.55 498.542 498.55Z"></path><path fill="url(#g)" d="M957.71 1622.92c275.34 0 498.54-223.21 498.54-498.55 0-275.332-223.2-498.537-498.54-498.537-275.337 0-498.542 223.205-498.542 498.537 0 275.34 223.205 498.55 498.542 498.55Z"></path><path fill="#0068FF" d="M957.71 1622.92c275.34 0 498.54-223.21 498.54-498.55 0-275.332-223.2-498.537-498.54-498.537-275.337 0-498.542 223.205-498.542 498.537 0 275.34 223.205 498.55 498.542 498.55Z" style="mix-blend-mode:overlay"></path></g><g filter="url(#h)"><path fill="#fff" d="M190.417 899.583c181.103 0 327.916-146.813 327.916-327.916 0-181.104-146.813-327.917-327.916-327.917C9.313 243.75-137.5 390.563-137.5 571.667c0 181.103 146.813 327.916 327.917 327.916Z"></path><path fill="url(#i)" d="M190.417 899.583c181.103 0 327.916-146.813 327.916-327.916 0-181.104-146.813-327.917-327.916-327.917C9.313 243.75-137.5 390.563-137.5 571.667c0 181.103 146.813 327.916 327.917 327.916Z"></path><path fill="#fff" d="M1795 869.583c127.03 0 230-102.975 230-230s-102.97-230-230-230-230 102.975-230 230 102.97 230 230 230Z"></path><path fill="url(#j)" d="M1795 869.583c127.03 0 230-102.975 230-230s-102.97-230-230-230-230 102.975-230 230 102.97 230 230 230Z"></path><path fill="#fff" d="M488.333 1749.58c0 120.59-97.75 218.34-218.334 218.34-120.582 0-218.333-97.75-218.333-218.34 0-120.58 97.751-218.33 218.333-218.33 120.584 0 218.334 97.75 218.334 218.33Z"></path><path fill="url(#k)" d="M488.333 1749.58c0 120.59-97.75 218.34-218.334 218.34-120.582 0-218.333-97.75-218.333-218.34 0-120.58 97.751-218.33 218.333-218.33 120.584 0 218.334 97.75 218.334 218.33Z"></path><path fill="#fff" d="M2352.5 2205c172.59 0 312.5-139.91 312.5-312.5S2525.09 1580 2352.5 1580 2040 1719.91 2040 1892.5s139.91 312.5 312.5 312.5Z"></path><path fill="url(#l)" d="M2352.5 2205c172.59 0 312.5-139.91 312.5-312.5S2525.09 1580 2352.5 1580 2040 1719.91 2040 1892.5s139.91 312.5 312.5 312.5Z"></path></g><g filter="url(#m)"><path fill="#fff" d="M2082.92 1539.58c101.94 0 184.58-82.64 184.58-184.58 0-101.94-82.64-184.58-184.58-184.58-101.95 0-184.59 82.64-184.59 184.58 0 101.94 82.64 184.58 184.59 184.58Z"></path><path fill="url(#n)" d="M2082.92 1539.58c101.94 0 184.58-82.64 184.58-184.58 0-101.94-82.64-184.58-184.58-184.58-101.95 0-184.59 82.64-184.59 184.58 0 101.94 82.64 184.58 184.59 184.58Z"></path><path fill="#fff" d="M629.793 1486.25c36.244 0 65.625-29.38 65.625-65.63 0-36.24-29.381-65.62-65.625-65.62s-65.625 29.38-65.625 65.62c0 36.25 29.381 65.63 65.625 65.63Z"></path><path fill="url(#o)" d="M629.793 1486.25c36.244 0 65.625-29.38 65.625-65.63 0-36.24-29.381-65.62-65.625-65.62s-65.625 29.38-65.625 65.62c0 36.25 29.381 65.63 65.625 65.63Z"></path></g><path fill="#fff" d="M1956.92 1116.83c23.7 0 42.91-19.21 42.91-42.91 0-23.71-19.21-42.92-42.91-42.92-23.71 0-42.92 19.21-42.92 42.92 0 23.7 19.21 42.91 42.92 42.91Z"></path><path fill="url(#p)" d="M1956.92 1116.83c23.7 0 42.91-19.21 42.91-42.91 0-23.71-19.21-42.92-42.91-42.92-23.71 0-42.92 19.21-42.92 42.92 0 23.7 19.21 42.91 42.92 42.91Z"></path><path fill="#fff" d="M465 1002.08c77.32 0 140-62.677 140-139.997 0-77.32-62.68-140-140-140s-140 62.68-140 140 62.68 139.997 140 139.997Z"></path><path fill="url(#q)" d="M465 1002.08c77.32 0 140-62.677 140-139.997 0-77.32-62.68-140-140-140s-140 62.68-140 140 62.68 139.997 140 139.997Z"></path><path fill="#fff" d="M1600 1851.25c61.67 0 111.67-50 111.67-111.67s-50-111.66-111.67-111.66-111.67 49.99-111.67 111.66c0 61.67 50 111.67 111.67 111.67Z"></path><path fill="url(#r)" d="M1600 1851.25c61.67 0 111.67-50 111.67-111.67s-50-111.66-111.67-111.66-111.67 49.99-111.67 111.66c0 61.67 50 111.67 111.67 111.67Z"></path></g><defs><radialGradient id="c" cx="0" cy="0" r="1" gradientTransform="rotate(46.346 1048.534 2608.583) scale(1295.91 1047.04)" gradientUnits="userSpaceOnUse"><stop stop-color="#fff"></stop><stop offset=".221" stop-color="#F3F5F7" stop-opacity=".557"></stop><stop offset=".596" stop-color="#CFD6E8"></stop><stop offset="1" stop-color="#D8DEEB"></stop></radialGradient><radialGradient id="d" cx="0" cy="0" r="1" gradientTransform="rotate(46.346 -1171.742 260.994) scale(704.242 568.996)" gradientUnits="userSpaceOnUse"><stop stop-color="#fff"></stop><stop offset=".221" stop-color="#F3F5F7" stop-opacity=".557"></stop><stop offset=".596" stop-color="#CFD6E8"></stop><stop offset="1" stop-color="#D8DEEB"></stop></radialGradient><radialGradient id="f" cx="0" cy="0" r="1" gradientTransform="matrix(510.77611 535.3584 -432.5458 412.68441 1448.39 1362.94)" gradientUnits="userSpaceOnUse"><stop stop-color="#fff"></stop><stop offset=".221" stop-color="#F3F5F7" stop-opacity=".557"></stop><stop offset=".596" stop-color="#CFD6E8"></stop><stop offset="1" stop-color="#D8DEEB"></stop></radialGradient><radialGradient id="g" cx="0" cy="0" r="1" gradientTransform="matrix(755.89284 792.27193 -640.1245 610.73162 700.355 873.758)" gradientUnits="userSpaceOnUse"><stop stop-color="#fff"></stop><stop offset=".221" stop-color="#F3F5F7" stop-opacity=".557"></stop><stop offset=".596" stop-color="#CFD6E8"></stop><stop offset="1" stop-color="#D8DEEB"></stop></radialGradient><radialGradient id="i" cx="0" cy="0" r="1" gradientTransform="matrix(497.19169 521.12019 -421.04468 401.7114 21.14 406.822)" gradientUnits="userSpaceOnUse"><stop stop-color="#fff"></stop><stop offset=".221" stop-color="#F3F5F7" stop-opacity=".557"></stop><stop offset=".596" stop-color="#CFD6E8"></stop><stop offset="1" stop-color="#D8DEEB"></stop></radialGradient><radialGradient id="j" cx="0" cy="0" r="1" gradientTransform="rotate(46.346 226.093 2220.04) scale(505.188 408.169)" gradientUnits="userSpaceOnUse"><stop stop-color="#fff"></stop><stop offset=".221" stop-color="#F3F5F7" stop-opacity=".557"></stop><stop offset=".596" stop-color="#CFD6E8"></stop><stop offset="1" stop-color="#D8DEEB"></stop></radialGradient><radialGradient id="k" cx="0" cy="0" r="1" gradientTransform="matrix(331.03973 346.97057 -280.3393 267.46777 196.955 1709.997)" gradientUnits="userSpaceOnUse"><stop stop-color="#fff"></stop><stop offset=".221" stop-color="#F3F5F7" stop-opacity=".557"></stop><stop offset=".596" stop-color="#CFD6E8"></stop><stop offset="1" stop-color="#D8DEEB"></stop></radialGradient><radialGradient id="l" cx="0" cy="0" r="1" gradientTransform="matrix(473.81673 496.62026 -401.25055 382.82616 2191.18 1735.4)" gradientUnits="userSpaceOnUse"><stop stop-color="#fff"></stop><stop offset=".221" stop-color="#F3F5F7" stop-opacity=".557"></stop><stop offset=".596" stop-color="#CFD6E8"></stop><stop offset="1" stop-color="#D8DEEB"></stop></radialGradient><radialGradient id="n" cx="0" cy="0" r="1" gradientTransform="rotate(46.346 -480.578 2952.865) scale(405.43 327.57)" gradientUnits="userSpaceOnUse"><stop stop-color="#fff"></stop><stop offset=".221" stop-color="#F3F5F7" stop-opacity=".557"></stop><stop offset=".596" stop-color="#CFD6E8"></stop><stop offset="1" stop-color="#D8DEEB"></stop></radialGradient><radialGradient id="o" cx="0" cy="0" r="1" gradientTransform="rotate(46.346 -1322.938 1389.91) scale(144.143 116.461)" gradientUnits="userSpaceOnUse"><stop stop-color="#fff"></stop><stop offset=".221" stop-color="#F3F5F7" stop-opacity=".557"></stop><stop offset=".596" stop-color="#CFD6E8"></stop><stop offset="1" stop-color="#D8DEEB"></stop></radialGradient><radialGradient id="p" cx="0" cy="0" r="1" gradientTransform="matrix(65.07102 68.20247 -55.10492 52.57483 1934.757 1052.336)" gradientUnits="userSpaceOnUse"><stop stop-color="#fff"></stop><stop offset=".221" stop-color="#F3F5F7" stop-opacity=".557"></stop><stop offset=".596" stop-color="#CFD6E8"></stop><stop offset="1" stop-color="#D8DEEB"></stop></radialGradient><radialGradient id="q" cx="0" cy="0" r="1" gradientTransform="rotate(46.346 -728.428 854.602) scale(307.504 248.45)" gradientUnits="userSpaceOnUse"><stop stop-color="#fff"></stop><stop offset=".221" stop-color="#F3F5F7" stop-opacity=".557"></stop><stop offset=".596" stop-color="#CFD6E8"></stop><stop offset="1" stop-color="#D8DEEB"></stop></radialGradient><radialGradient id="r" cx="0" cy="0" r="1" gradientTransform="matrix(169.3107 177.45916 -143.37979 136.79616 1542.35 1683.45)" gradientUnits="userSpaceOnUse"><stop stop-color="#fff"></stop><stop offset=".221" stop-color="#F3F5F7" stop-opacity=".557"></stop><stop offset=".596" stop-color="#CFD6E8"></stop><stop offset="1" stop-color="#D8DEEB"></stop></radialGradient><filter id="b" width="3675.83" height="1894.58" x="-449.166" y="-364.167" color-interpolation-filters="sRGB" filterUnits="userSpaceOnUse"><feGaussianBlur result="effect1_foregroundBlur_2590_52" stdDeviation="60"></feGaussianBlur></filter><filter id="e" width="1770" height="1513.33" x="324.168" y="490.833" color-interpolation-filters="sRGB" filterUnits="userSpaceOnUse"><feGaussianBlur result="effect1_foregroundBlur_2590_52" stdDeviation="67.5"></feGaussianBlur></filter><filter id="h" width="2912.5" height="2071.25" x="-192.5" y="188.75" color-interpolation-filters="sRGB" filterUnits="userSpaceOnUse"><feGaussianBlur result="effect1_foregroundBlur_2590_52" stdDeviation="27.5"></feGaussianBlur></filter><filter id="m" width="1727.33" height="393.167" x="552.168" y="1158.42" color-interpolation-filters="sRGB" filterUnits="userSpaceOnUse"><feGaussianBlur result="effect1_foregroundBlur_2590_52" stdDeviation="6"></feGaussianBlur></filter></defs></svg>