<svg width="16" height="16" viewBox="0 0 16 16" fill="none" xmlns="http://www.w3.org/2000/svg">
<path d="M2.24507 7.96014C1.58145 6.803 1.26103 5.85812 1.06782 4.90034C0.782068 3.48379 1.436 2.10005 2.5193 1.21712C2.97715 0.843956 3.50199 0.971451 3.77273 1.45717L4.38396 2.55372C4.86844 3.42288 5.11067 3.85746 5.06263 4.3182C5.01458 4.77894 4.68789 5.15419 4.03451 5.90469L2.24507 7.96014ZM2.24507 7.96014C3.58829 10.3023 5.69622 12.4114 8.04108 13.7562M8.04108 13.7562C9.19822 14.4198 10.1431 14.7402 11.1009 14.9334C12.5174 15.2192 13.9012 14.5652 14.7841 13.4819C15.1573 13.0241 15.0298 12.4992 14.5441 12.2285L13.4475 11.6173C12.5783 11.1328 12.1438 10.8905 11.683 10.9386C11.2223 10.9866 10.847 11.3133 10.0965 11.9667L8.04108 13.7562Z" stroke="#063D30" stroke-width="2" stroke-linejoin="round"/>
<path d="M9.40076 4.38278C10.397 4.80585 11.1954 5.60423 11.6185 6.60049M9.85857 1.00049C12.3346 1.71502 14.2861 3.66645 15.0008 6.14243" stroke="#063D30" stroke-width="2" stroke-linecap="round"/>
</svg>
