<svg xmlns="http://www.w3.org/2000/svg" width="2500" height="1250" fill="none" viewBox="0 0 2500 1250"><g clip-path="url(#a)"><mask id="b" width="2500" height="1250" x="0" y="0" maskUnits="userSpaceOnUse" style="mask-type:luminance"><path fill="#fff" d="M2500 0H0v1250h2500V0Z"></path></mask><g mask="url(#b)"><g filter="url(#c)"><path fill="#fff" d="M1986.88 589.583c192.26 0 348.12-155.861 348.12-348.125s-155.86-348.125-348.12-348.125c-192.27 0-348.13 155.86-348.13 348.125 0 192.264 155.86 348.125 348.13 348.125Z"></path><path fill="url(#d)" d="M1986.88 589.583c192.26 0 348.12-155.861 348.12-348.125s-155.86-348.125-348.12-348.125c-192.27 0-348.13 155.86-348.13 348.125 0 192.264 155.86 348.125 348.13 348.125Z"></path><path fill="#00B4C3" d="M1986.88 589.583c192.26 0 348.12-155.861 348.12-348.125s-155.86-348.125-348.12-348.125c-192.27 0-348.13 155.86-348.13 348.125 0 192.264 155.86 348.125 348.13 348.125Z" style="mix-blend-mode:overlay"></path><path fill="#fff" d="M1370.21 281.666c148.31 0 268.54-120.23 268.54-268.541 0-148.312-120.23-268.542-268.54-268.542s-268.54 120.23-268.54 268.542c0 148.311 120.23 268.541 268.54 268.541Z"></path><path fill="url(#e)" d="M1370.21 281.666c148.31 0 268.54-120.23 268.54-268.541 0-148.312-120.23-268.542-268.54-268.542s-268.54 120.23-268.54 268.542c0 148.311 120.23 268.541 268.54 268.541Z"></path><path fill="#0068FF" d="M1370.21 281.666c148.31 0 268.54-120.23 268.54-268.541 0-148.312-120.23-268.542-268.54-268.542s-268.54 120.23-268.54 268.542c0 148.311 120.23 268.541 268.54 268.541Z" style="mix-blend-mode:overlay"></path></g><g filter="url(#f)"><path fill="#fff" d="M1796.04 153.333c62.25 0 112.71-50.462 112.71-112.709s-50.46-112.708-112.71-112.708c-62.25 0-112.71 50.461-112.71 112.708s50.46 112.709 112.71 112.709Z"></path><path fill="url(#g)" d="M1796.04 153.333c62.25 0 112.71-50.462 112.71-112.709s-50.46-112.708-112.71-112.708c-62.25 0-112.71 50.461-112.71 112.708s50.46 112.709 112.71 112.709Z"></path></g><g filter="url(#h)"><path fill="#fff" d="M2393.12 660.416c101.37 0 183.55-82.174 183.55-183.541 0-101.368-82.18-183.542-183.55-183.542-101.36 0-183.54 82.174-183.54 183.542 0 101.367 82.18 183.541 183.54 183.541Z"></path><path fill="url(#i)" d="M2393.12 660.416c101.37 0 183.55-82.174 183.55-183.541 0-101.368-82.18-183.542-183.55-183.542-101.36 0-183.54 82.174-183.54 183.542 0 101.367 82.18 183.541 183.54 183.541Z"></path></g><path fill="#fff" d="M1800 371.249c20.25 0 36.67-16.416 36.67-36.666 0-20.251-16.42-36.667-36.67-36.667s-36.67 16.416-36.67 36.667c0 20.25 16.42 36.666 36.67 36.666Z"></path><path fill="url(#j)" d="M1800 371.249c20.25 0 36.67-16.416 36.67-36.666 0-20.251-16.42-36.667-36.67-36.667s-36.67 16.416-36.67 36.667c0 20.25 16.42 36.666 36.67 36.666Z"></path><path fill="#fff" d="M2212.29 195c36.25 0 65.63-29.381 65.63-65.625s-29.38-65.625-65.63-65.625c-36.24 0-65.62 29.381-65.62 65.625S2176.05 195 2212.29 195Z"></path><path fill="url(#k)" d="M2212.29 195c36.25 0 65.63-29.381 65.63-65.625s-29.38-65.625-65.63-65.625c-36.24 0-65.62 29.381-65.62 65.625S2176.05 195 2212.29 195Z"></path></g></g><defs><radialGradient id="d" cx="0" cy="0" r="1" gradientTransform="matrix(527.83371 553.235 -446.99164 426.46842 1807.166 66.453)" gradientUnits="userSpaceOnUse"><stop stop-color="#fff"></stop><stop offset=".221" stop-color="#F3F5F7" stop-opacity=".557"></stop><stop offset=".596" stop-color="#CFD6E8"></stop><stop offset="1" stop-color="#D8DEEB"></stop></radialGradient><radialGradient id="e" cx="0" cy="0" r="1" gradientTransform="matrix(407.16822 426.76413 -344.80709 328.97443 1231.58 -121.872)" gradientUnits="userSpaceOnUse"><stop stop-color="#fff"></stop><stop offset=".221" stop-color="#F3F5F7" stop-opacity=".557"></stop><stop offset=".596" stop-color="#CFD6E8"></stop><stop offset="1" stop-color="#D8DEEB"></stop></radialGradient><radialGradient id="g" cx="0" cy="0" r="1" gradientTransform="matrix(170.8901 179.11458 -144.71758 138.07252 1737.86 -16.034)" gradientUnits="userSpaceOnUse"><stop stop-color="#fff"></stop><stop offset=".221" stop-color="#F3F5F7" stop-opacity=".557"></stop><stop offset=".596" stop-color="#CFD6E8"></stop><stop offset="1" stop-color="#D8DEEB"></stop></radialGradient><radialGradient id="i" cx="0" cy="0" r="1" gradientTransform="rotate(46.346 699.928 2877.052) scale(403.142 325.722)" gradientUnits="userSpaceOnUse"><stop stop-color="#fff"></stop><stop offset=".221" stop-color="#F3F5F7" stop-opacity=".557"></stop><stop offset=".596" stop-color="#CFD6E8"></stop><stop offset="1" stop-color="#D8DEEB"></stop></radialGradient><radialGradient id="j" cx="0" cy="0" r="1" gradientTransform="matrix(55.59452 58.27014 -47.07992 44.91813 1781.07 316.15)" gradientUnits="userSpaceOnUse"><stop stop-color="#fff"></stop><stop offset=".221" stop-color="#F3F5F7" stop-opacity=".557"></stop><stop offset=".596" stop-color="#CFD6E8"></stop><stop offset="1" stop-color="#D8DEEB"></stop></radialGradient><radialGradient id="k" cx="0" cy="0" r="1" gradientTransform="rotate(46.346 976.622 2592.815) scale(144.143 116.461)" gradientUnits="userSpaceOnUse"><stop stop-color="#fff"></stop><stop offset=".221" stop-color="#F3F5F7" stop-opacity=".557"></stop><stop offset=".596" stop-color="#CFD6E8"></stop><stop offset="1" stop-color="#D8DEEB"></stop></radialGradient><filter id="c" width="1753.33" height="1365" x="841.667" y="-515.417" color-interpolation-filters="sRGB" filterUnits="userSpaceOnUse"><feGaussianBlur result="effect1_foregroundBlur_2594_184" stdDeviation="130"></feGaussianBlur></filter><filter id="f" width="375.417" height="375.417" x="1608.33" y="-147.084" color-interpolation-filters="sRGB" filterUnits="userSpaceOnUse"><feGaussianBlur result="effect1_foregroundBlur_2594_184" stdDeviation="37.5"></feGaussianBlur></filter><filter id="h" width="407.083" height="407.083" x="2189.58" y="273.333" color-interpolation-filters="sRGB" filterUnits="userSpaceOnUse"><feGaussianBlur result="effect1_foregroundBlur_2594_184" stdDeviation="10"></feGaussianBlur></filter><clipPath id="a"><path fill="#fff" d="M0 0h2500v1250H0z"></path></clipPath></defs></svg>